PathFileType	4	(X/Y/Z)	Patient4_TMGait_0pt6_02_right_33.trc.trc
DataRate	CameraRate	NumFrames	NumMarkers	Units	OrigDataRate	OrigDataStartFrame	OrigNumFrames
83.333333333333	83.333333333333	5	33	mm	83.333333333333	106	       141
Frame#	Time	Sacral			L.Shoulder			Chest			R.Shoulder			Neck			R.ASIS			L.ASIS			R.Thigh.Superior			R.Thigh.Lateral			R.Thigh.Inferior			R.Patella			L.Thigh.Superior			L.Thigh.Lateral			L.Thigh.Inferior			L.Patella			L.Shank.Superior			L.Shank.Lateral			L.Shank.Inferior			R.Shank.Superior			R.Shank.Lateral			R.Shank.Inferior			R.Heel			R.Midfoot.Superior			R.Midfoot.Lateral			R.Toe			L.Heel			L.Midfoot.Lateral			L.Midfoot.Superior			L.Toe			L.Elbow			L.Wrist			R.Elbow			R.Wrist			
		X1	Y1	Z1	X2	Y2	Z2	X3	Y3	Z3	X4	Y4	Z4	X5	Y5	Z5	X6	Y6	Z6	X7	Y7	Z7	X8	Y8	Z8	X9	Y9	Z9	X10	Y10	Z10	X11	Y11	Z11	X12	Y12	Z12	X13	Y13	Z13	X14	Y14	Z14	X15	Y15	Z15	X16	Y16	Z16	X17	Y17	Z17	X18	Y18	Z18	X19	Y19	Z19	X20	Y20	Z20	X21	Y21	Z21	X22	Y22	Z22	X23	Y23	Z23	X24	Y24	Z24	X25	Y25	Z25	X26	Y26	Z26	X27	Y27	Z27	X28	Y28	Z28	X29	Y29	Z29	X30	Y30	Z30	X31	Y31	Z31	X32	Y32	Z32	X33	Y33	Z33	

106	40.970000000000	781.735202642049	1018.779149714344	411.535544684086	994.117633428142	1438.488583376777	236.132071614527	1085.801478631196	1358.027195201181	397.981354596152	1003.441668199846	1437.232947186058	569.724753374691	992.216020118206	1497.260799040707	388.390350995223	1003.065766510934	951.562781925188	535.494088353738	996.219630572975	958.461466022629	260.757291880520	1093.652724890725	794.251417504357	506.630253476792	1065.550711830556	673.064702037505	583.329680800461	1155.962130727031	638.911937649500	502.083600274883	1186.219520981868	529.337411165774	526.281335158874	1030.574791575527	744.611888853672	296.244727647038	932.358701318223	635.602334071911	238.486632505794	1007.529558631566	552.483412443417	305.382733960828	1001.496515481291	483.325623204315	317.331763817495	970.756318283377	413.893546800588	309.455000052559	874.434018069883	304.032948956145	262.538634078237	918.141965804668	191.772068474294	335.489536625407	1119.498003029045	447.656812654828	537.150883791648	1005.807707286210	392.632095954805	599.202326343139	1007.908675746239	281.180560255329	553.925303672127	819.233003273627	194.253983854414	529.534741074233	992.151385850195	151.479469236968	566.881248273166	884.339798790329	140.286572706698	601.921407486654	1068.559207709354	47.196758317875	593.188914572247	783.193968600195	39.793460486047	383.765608589946	853.696972118158	35.910732571299	300.284620976779	938.683488452579	96.118220254427	323.254848884049	1065.625460669181	40.354289912769	288.658432480243	997.868418204389	1096.050392192237	91.412612870908	1181.077442565741	908.696121743646	94.640413023707	927.473185137512	1093.193844109935	681.452549031851	968.167374417084	832.857943650179	681.090958221020	
107	40.982000000000	780.898265864132	1018.931801279979	410.848012458276	995.250757804690	1438.503581918045	236.303698220084	1085.586483445635	1357.879108909620	398.835385913606	1002.070222154919	1437.192008557549	569.989047868076	992.080026209835	1497.239656680293	388.588945311468	1001.781119653485	951.854606902927	535.875651139769	995.896251954800	958.389753230478	261.127800171351	1093.183233515000	796.166085478441	506.672494362603	1066.485706155787	674.585333337825	583.423129783731	1156.727106143960	641.204012603044	501.858700871911	1188.898177526718	533.228243832230	526.116630854939	1027.807603382063	743.578016102111	296.964794107089	928.465497831429	635.598769879047	238.279778993157	1002.130563813388	551.637286268286	305.491131671848	995.213716855414	482.750253792695	317.378223049241	964.580066372194	413.581043563171	309.394510665967	868.070247014723	303.974219924142	262.316329630079	911.140732127336	191.640675173885	335.455226541907	1125.747689083051	449.768467556058	537.243827924084	1015.567251680822	389.110218378126	600.059750651396	1022.903598465433	277.906213855943	554.513720447450	838.720443021430	181.252558580420	531.319265507672	1013.828779374292	147.653247776790	567.343884586546	907.110975971591	130.886221000489	603.373927544302	1095.933727909048	47.615896917566	593.264017697482	775.957140393494	39.836768312972	383.687817266907	846.454333731053	35.888803909662	300.247775886697	931.450311603504	96.094307174966	323.213635665847	1058.386982026475	40.311083063362	288.657168755410	1003.981771281351	1097.494671989435	89.701214746019	1195.393284787431	918.639436610933	94.001822630582	918.290320102845	1095.582826330630	682.251795701376	945.433267777994	833.401976011406	685.358299029829	
108	40.994000000000	780.174641110073	1018.985664472122	410.333213605112	996.347798400433	1438.397671702515	236.613650560396	1085.430941593922	1357.631542552926	399.771839786781	1000.827116974471	1437.064196289725	570.326140564959	992.006719567966	1497.110546499586	388.920707323018	1000.665958357654	951.952992534553	536.337140265684	995.694279950325	958.331425621980	261.563900414051	1092.436432670732	797.444088145017	506.770201415638	1066.783479620998	675.519219720601	583.580569782867	1156.775500721772	642.695088242376	501.732102801126	1190.665378504546	536.500013998920	525.998275205146	1025.125376509549	742.497678251890	297.603024303903	924.535058576479	635.574111136757	238.113270834149	996.724358289784	550.770031838024	305.542108796862	988.942345752041	482.189220065319	317.372092472052	958.404990592214	413.268046114290	309.315391714496	861.679798795786	303.925797085025	262.102116000906	904.157801992334	191.509215876915	335.402187405190	1131.316003767480	451.454960688558	537.385832462635	1025.208014806656	385.094173664357	601.128453590903	1037.941131567318	274.465066504091	555.210197462928	859.076513158375	167.936578348280	533.298403868624	1035.871434412317	143.971728485945	567.926741001639	930.660714006091	121.511404320690	605.002007747160	1123.603602476644	48.646055335952	593.435704052537	768.729997720416	39.882879958736	383.608711239414	839.208696671745	35.863392337495	300.214540576615	924.219043959092	96.068738126706	323.167577144189	1051.143359380854	40.265491402790	288.656982105229	1009.767154721286	1098.863955354086	88.258380856933	1209.038484703893	928.983513358971	93.706503159058	908.853390829961	1098.263649809082	683.170295677262	923.874803907845	835.267634356858	689.022070753863	
109	41.006000000000	779.585002344193	1018.929751667925	409.999456785392	997.382519245466	1438.169567625119	237.054674684476	1085.327736973879	1357.291859120588	400.776544028636	999.719777809452	1436.861834864128	570.726548690705	991.992059816175	1496.873552685900	389.373087734687	999.747358107603	951.855503874897	536.875474560294	995.604330848337	958.270833466280	262.052510706787	1091.425074862759	798.038275478942	506.938423973652	1066.428008976544	675.833363919137	583.835373770419	1156.120265821088	643.347728651152	501.747180410460	1191.526524541092	539.095421668679	525.960692430020	1022.526209733686	741.365396790570	298.136894993661	920.566267076098	635.535092554417	237.987456794655	991.318715981713	549.886412543406	305.528661799211	982.694018469552	481.644070300896	317.307123031078	952.230129950929	412.959685807157	309.213488187236	855.255849148780	303.895403263136	261.896687565316	897.192840677352	191.382022894457	335.326923130903	1136.152145083734	452.703272544067	537.594447960278	1034.624970488248	380.672012219488	602.359484484101	1052.868256882427	270.966986552356	555.970695802641	880.155475002371	154.533543545861	535.314820030704	1058.060436843150	140.605578699247	568.593003421250	954.757850773687	112.363825386262	606.670500152226	1151.257300337443	50.450885571341	593.685615309200	761.506677195026	39.934385753964	383.530150610701	831.958762868063	35.835166782767	300.185264322628	916.988500171430	96.041297168891	323.114911496461	1043.893181073583	40.217481649357	288.657323921862	1015.241239327400	1100.128961996392	87.095048253911	1221.961451548877	939.658603786719	93.744416657828	899.259085104001	1101.260938754713	684.218086408977	903.538828199656	838.205124635650	692.153238979363	
110	41.018000000000	779.151699397687	1018.746651424548	409.857379820299	998.330653975153	1437.820500658772	237.619056471664	1085.267932563279	1356.869762731679	401.837227651957	998.753048397260	1436.598750507863	571.187348953897	992.024254967020	1496.529752226277	389.932373079687	999.048489491138	951.560461700854	537.488061736174	995.612974583864	958.184672260638	262.586387852669	1090.176175952553	797.917711629420	507.202829663410	1065.428726166596	675.512314940837	584.227539442750	1154.796242023943	643.146970038185	501.948371598733	1191.505430196242	540.972140846253	526.042341158900	1020.000418542576	740.179276029192	298.561607938308	916.562759074084	635.488618884029	237.902722434876	985.920549245303	548.992677695487	305.450407758763	976.478657382001	481.114551368492	317.179156775602	946.053121320714	412.661472244021	309.085982818546	848.792175728843	303.890564627462	261.700720265055	890.243012947191	191.263437258040	335.226728483536	1140.215708226595	453.502438906420	537.891765354669	1043.683609068346	375.928427287592	603.688327454121	1067.504148517597	267.501206571855	556.747769349999	901.737812747437	141.260571668580	537.199998257549	1080.133589371901	137.683679403515	569.305634816318	979.101431132651	103.606120432284	608.235335165698	1178.540018206752	53.114023889759	593.986739703529	754.281762788565	39.993796248385	383.454432021476	824.703932287736	35.805421621756	300.160226901453	909.757595671965	96.011950766099	323.054536712843	1036.636061383387	40.167340942697	288.657804860891	1020.416261263350	1101.267214884529	86.221686267928	1234.113300169829	950.590924949871	94.106735866578	889.633947243708	1104.579202767057	685.389862034993	884.434236184785	841.972714575490	694.842093689169	
